<svg fill="#FFF" xmlns="http://www.w3.org/2000/svg"  viewBox="0 0 50 50" width="150px" height="150px"><path transform="matrix(-1,0,0,-1,55.7,55.6)5.6)" d="M 16.3 5.3 C 15.7 5.3 15.1 5.5 14.7 6 C 14.3 6.4 14.1 6.9 14 7.5 L 14 7.5 L 13.1 18.3 L 6.8 18.3 C 6.1 18.3 5.4 18.8 5.2 19.5 C 5 20.1 5.2 20.8 5.7 21.3 L 5.8 21.4 L 5.9 21.5 C 7.3 22.2 9.6 23.1 12.8 23.8 L 12.8 24.8 C 11.1 25.6 9.8 27.2 9.8 29.2 C 9.8 31.2 11.1 32.9 12.8 33.7 L 12.8 37.3 C 12.8 38.4 13.3 39.7 14 41.1 C 14.8 42.4 15.8 43.9 17.2 45.2 C 18.9 47 21.1 48.6 23.5 49.5 C 24.4 50 25.4 50.3 26.4 50.3 L 29.2 50.3 C 30.3 50.3 31.3 50 32.2 49.5 C 34.6 48.5 36.8 46.9 38.5 45.1 C 39.8 43.7 40.8 42.3 41.6 40.9 C 42.3 39.6 42.8 38.4 42.8 37.3 L 42.8 33.9 C 44.7 33.1 46.2 31.4 46.2 29.2 C 46.2 27 44.7 25.3 42.8 24.5 L 42.8 23.8 C 46.1 23.1 48.4 22.2 49.8 21.5 L 49.9 21.4 L 50 21.3 C 50.5 20.8 50.7 20 50.4 19.4 C 50.2 18.8 49.5 18.3 48.8 18.3 L 42.9 18.3 L 42 7.5 L 42 7.5 C 41.9 7 41.8 6.5 41.4 6 C 41.1 5.6 40.4 5.3 39.8 5.3 Z M 39.9 7.3 C 39.9 7.3 40 7.4 40 7.7 L 40.6 14.3 L 15.4 14.3 L 16 7.7 C 16 7.5 16.1 7.4 16.1 7.3 C 16.1 7.3 16.1 7.3 16.3 7.3 L 39.8 7.3 C 40 7.3 39.9 7.3 39.9 7.3 Z M 15 19.3 L 41 19.3 L 41.1 20.3 L 47.4 20.3 C 44.3 21.6 38.3 23.3 28.1 23.3 C 17.8 23.3 11.4 21.6 8.3 20.3 L 14.9 20.3 Z M 14.8 24.2 C 18.3 24.8 22.7 25.3 28.1 25.3 C 33.3 25.3 37.5 24.9 40.8 24.2 L 40.8 26 L 41.6 26.2 C 43.1 26.5 44.2 27.7 44.2 29.2 C 44.2 30.7 43.1 31.9 41.6 32.2 L 40.8 32.4 L 40.8 37.3 C 40.8 37.7 40.5 38.8 39.8 40 C 39.2 41.1 38.2 42.5 37 43.7 C 36.3 44.5 35.5 45.1 34.7 45.7 C 34.8 45.4 34.8 45.1 34.8 44.7 L 34.8 40.3 C 34.8 38.1 33 36.3 30.8 36.3 L 24.8 36.3 C 22.6 36.3 20.8 38.1 20.8 40.3 L 20.8 44.7 C 20.8 45.1 20.9 45.5 20.9 45.8 C 20.1 45.2 19.3 44.6 18.6 43.8 C 17.4 42.6 16.4 41.3 15.8 40.1 C 15.1 38.9 14.8 37.8 14.8 37.3 L 14.8 32.4 L 14.1 32.1 C 12.8 31.8 11.8 30.5 11.8 29.2 C 11.8 27.8 12.8 26.6 14.1 26.3 L 14.8 26 Z M 14.8 26.3 L 16.3 31.6 C 16.6 32.6 17.5 33.3 18.6 33.3 L 23.1 33.3 C 24.1 33.3 25.1 32.7 25.5 31.8 C 25.5 31.8 26.5 29.9 27.2 28.6 C 27.3 28.3 27.6 28.2 27.9 28.2 C 28.2 28.2 28.5 28.4 28.6 28.6 L 30.2 31.8 C 30.7 32.7 31.6 33.3 32.6 33.3 L 37.1 33.3 C 38.2 33.3 39.1 32.6 39.4 31.6 L 40.8 26.3 Z M 17.4 28.3 L 25.1 28.3 C 24.5 29.5 23.7 30.9 23.7 30.9 L 23.7 31.1 C 23.6 31.2 23.4 31.4 23.1 31.4 L 18.6 31.4 C 18.3 31.4 18.2 31.2 18.2 31.2 Z M 30.7 28.3 L 38.2 28.3 L 37.5 31 C 37.5 31.1 37.4 31.3 37.1 31.3 L 32.6 31.3 C 32.4 31.3 32.1 31.1 32 30.9 Z M 24.8 40.3 L 30.8 40.3 C 31.9 40.3 32.8 41.2 32.8 42.3 L 32.8 43.3 L 29.8 46.3 L 29.8 44.3 C 29.8 43.2 28.9 42.3 27.8 42.3 C 26.7 42.3 25.8 43.2 25.8 44.3 L 25.8 46.3 L 22.8 43.3 L 22.8 42.3 C 22.8 41.2 23.7 40.3 24.8 40.3 Z"/></svg>