<svg fill="#FFF" xmlns="http://www.w3.org/2000/svg"  viewBox="0 0 50 50" width="150px" height="150px"><path transform="matrix(-1,0,0,-1,55.7,55.6)5.6)" d="M 14 3 C 13.4 3 12.8 3.2 12.4 3.7 C 12 4.1 11.8 4.6 11.7 5.2 L 11.7 5.2 L 10.8 16 L 4.5 16 C 3.8 16 3.1 16.5 2.9 17.2 C 2.7 17.8 2.9 18.5 3.4 19 L 3.5 19.1 L 3.6 19.2 C 5 19.9 7.3 20.8 10.5 21.5 L 10.5 22.5 C 8.8 23.3 7.5 24.9 7.5 26.9 C 7.5 28.9 8.8 30.6 10.5 31.4 L 10.5 35 C 10.5 36.1 11 37.4 11.7 38.8 C 12.5 40.1 13.5 41.6 14.9 42.9 C 16.6 44.7 18.8 46.3 21.2 47.2 C 22.1 47.7 23.1 48 24.1 48 L 26.9 48 C 28 48 29 47.7 29.9 47.2 C 32.3 46.2 34.5 44.6 36.2 42.8 C 37.5 41.4 38.5 40 39.3 38.6 C 40 37.3 40.5 36.1 40.5 35 L 40.5 31.6 C 42.4 30.8 43.9 29.1 43.9 26.9 C 43.9 24.7 42.4 23 40.5 22.2 L 40.5 21.5 C 43.8 20.8 46.1 19.9 47.5 19.2 L 47.6 19.1 L 47.7 19 C 48.2 18.5 48.4 17.7 48.1 17.1 C 47.9 16.5 47.2 16 46.5 16 L 40.6 16 L 39.7 5.2 L 39.7 5.2 C 39.6 4.7 39.5 4.2 39.1 3.7 C 38.8 3.3 38.1 3 37.5 3 Z M 37.6 5 C 37.6 5 37.7 5.1 37.7 5.4 L 38.3 12 L 13.1 12 L 13.7 5.4 C 13.7 5.2 13.8 5.1 13.8 5 C 13.8 5 13.8 5 14 5 L 37.5 5 C 37.7 5 37.6 5 37.6 5 Z M 12.7 17 L 38.7 17 L 38.8 18 L 45.1 18 C 42 19.3 36 21 25.8 21 C 15.5 21 9.1 19.3 6 18 L 12.6 18 Z M 12.5 21.9 C 16 22.5 20.4 23 25.8 23 C 31 23 35.2 22.6 38.5 21.9 L 38.5 23.7 L 39.3 23.9 C 40.8 24.2 41.9 25.4 41.9 26.9 C 41.9 28.4 40.8 29.6 39.3 29.9 L 38.5 30.1 L 38.5 35 C 38.5 35.4 38.2 36.5 37.5 37.7 C 36.9 38.8 35.9 40.2 34.7 41.4 C 34 42.2 33.2 42.8 32.4 43.4 C 32.5 43.1 32.5 42.8 32.5 42.4 L 32.5 38 C 32.5 35.8 30.7 34 28.5 34 L 22.5 34 C 20.3 34 18.5 35.8 18.5 38 L 18.5 42.4 C 18.5 42.8 18.6 43.2 18.6 43.5 C 17.8 42.9 17 42.3 16.3 41.5 C 15.1 40.3 14.1 39 13.5 37.8 C 12.8 36.6 12.5 35.5 12.5 35 L 12.5 30.1 L 11.8 29.8 C 10.5 29.5 9.5 28.2 9.5 26.9 C 9.5 25.5 10.5 24.3 11.8 24 L 12.5 23.7 Z M 12.5 24 L 14 29.3 C 14.3 30.3 15.2 31 16.3 31 L 20.8 31 C 21.8 31 22.8 30.4 23.2 29.5 C 23.2 29.5 24.2 27.6 24.9 26.3 C 25 26 25.3 25.9 25.6 25.9 C 25.9 25.9 26.2 26.1 26.3 26.3 L 27.9 29.5 C 28.4 30.4 29.3 31 30.3 31 L 34.8 31 C 35.9 31 36.8 30.3 37.1 29.3 L 38.5 24 Z M 15.1 26 L 22.8 26 C 22.2 27.2 21.4 28.6 21.4 28.6 L 21.4 28.8 C 21.3 28.9 21.1 29.1 20.8 29.1 L 16.3 29.1 C 16 29.1 15.9 28.9 15.9 28.9 Z M 28.4 26 L 35.9 26 L 35.2 28.7 C 35.2 28.8 35.1 29 34.8 29 L 30.3 29 C 30.1 29 29.8 28.8 29.7 28.6 Z M 22.5 38 L 28.5 38 C 29.6 38 30.5 38.9 30.5 40 L 30.5 41 L 27.5 44 L 27.5 42 C 27.5 40.9 26.6 40 25.5 40 C 24.4 40 23.5 40.9 23.5 42 L 23.5 44 L 20.5 41 L 20.5 40 C 20.5 38.9 21.4 38 22.5 38 Z"/></svg>